HIERARCHY
ROOT Hips
{
  OFFSET 0 0 0
  CHANNELS 6 Xposition Yposition Zposition Zrotation Yrotation Xrotation
  JOINT LeftThigh
  {
    OFFSET 8.409438 0 -5.917753
    CHANNELS 3 Zrotation Yrotation Xrotation
    JOINT LeftLeg
    {
      OFFSET 0 0 -42.358652
      CHANNELS 3 Zrotation Yrotation Xrotation
      JOINT LeftFoot
      {
        OFFSET 0 0 -39.357303
        CHANNELS 3 Zrotation Yrotation Xrotation
      }
    }
  }
  JOINT RightThigh
  {
    OFFSET -8.409438 0 -5.917753
    CHANNELS 3 Zrotation Yrotation Xrotation
    JOINT RightLeg
    {
      OFFSET 0 0 -42.358652
      CHANNELS 3 Zrotation Yrotation Xrotation
      JOINT RightFoot
      {
        OFFSET 0 0 -39.357303
        CHANNELS 3 Zrotation Yrotation Xrotation
      }
    }
  }
  JOINT SpineLow
  {
    OFFSET 0 0 4.719101
    CHANNELS 3 Zrotation Yrotation Xrotation
    JOINT SpineMid
    {
      OFFSET 0 0 12.899191
      CHANNELS 3 Zrotation Yrotation Xrotation
      JOINT Chest
      {
        OFFSET 0 0 12.899191
        CHANNELS 3 Zrotation Yrotation Xrotation
        JOINT LeftShoulder
        {
          OFFSET 7.550562 1.41573 9.438202
          CHANNELS 3 Zrotation Yrotation Xrotation
          JOINT LeftArm
          {
            OFFSET 9.155056 0 4.247191
            CHANNELS 3 Zrotation Yrotation Xrotation
            JOINT LeftForearm
            {
              OFFSET 0 0 25.771955
              CHANNELS 3 Zrotation Yrotation Xrotation
              JOINT LeftHand
              {
                OFFSET 0 0 25.197169
                CHANNELS 3 Zrotation Yrotation Xrotation
              }
            }
          }
        }
        JOINT RightShoulder
        {
          OFFSET -7.550562 1.41573 9.438202
          CHANNELS 3 Zrotation Yrotation Xrotation
          JOINT RightArm
          {
            OFFSET -9.155056 0 4.247191
            CHANNELS 3 Zrotation Yrotation Xrotation
            JOINT RightForearm
            {
              OFFSET 0 0 -25.771955
              CHANNELS 3 Zrotation Yrotation Xrotation
              JOINT RightHand
              {
                OFFSET 0 0 -25.197169
                CHANNELS 3 Zrotation Yrotation Xrotation
              }
            }
          }
        }
        JOINT Neck
        {
          OFFSET 0 0 15.101124
          CHANNELS 3 Zrotation Yrotation Xrotation
          JOINT Head
          {
            OFFSET 0 0 11.325843
            CHANNELS 3 Zrotation Yrotation Xrotation
            End Site
            {
              OFFSET 0 0 14.157303
            }
          }
        }
      }
    }
  }
}
MOTION
Frames: 5
Frame Time: 0.0
0.0  101.685394  0.0  -2.340307  -43.647094  -99.659232  28.648901  -33.365653  -27.786977  1.681275  22.574057  54.237878  -1.138564  4.572405  2.600555  -1.319368  -11.085722  9.414299  -17.398231  30.607505  18.237508  27.109538  16.669325  1.484512  -4.267841  -1.325745  1.900367  -11.770644  -3.273432  5.413618  -11.770644  -3.273432  5.413618  14.633715  30.457203  16.487623  -164.523468  71.612506  -135.724192  -55.840202  -26.323503  101.767685  34.902894  -27.618017  3.907984  32.645141  3.191107  37.64455  95.34998  26.437112  37.941491  -18.837173  14.122346  -97.748738  83.016215  24.220605  64.831992  16.314162  0.874056  -2.489  12.239181  0.589584  -1.891656  
0.0  101.685394  0.0  -1.926793  -42.219335  -99.544477  28.762674  -32.738614  -28.041299  1.939676  22.715868  53.872792  -1.666213  4.21728  2.307138  -2.1243  -10.592224  9.07614  -18.213707  30.866853  17.734021  27.123958  16.65141  1.349426  -4.501383  -1.3719  1.702963  -12.404039  -3.416451  4.895341  -12.404039  -3.416451  4.895341  15.727498  30.927552  17.823707  -165.460557  71.331902  -136.525064  -55.94351  -26.308075  102.083902  35.203684  -27.692506  4.447826  33.093809  3.26343  38.561539  95.737464  26.805581  38.058585  -19.378399  15.125179  -97.740138  82.845079  22.558813  65.583214  16.754039  1.126305  -2.186841  12.569342  0.785467  -1.672463  
0.0  101.685394  0.0  -1.631822  -40.586223  -99.264218  28.691964  -32.022332  -28.5387  1.949758  22.821207  53.352577  -1.923087  4.103748  2.229358  -3.411132  -10.050295  8.759614  -19.012093  31.00801  17.039313  27.330868  16.784145  1.312032  -4.690243  -1.408801  1.537739  -12.915479  -3.534682  4.461779  -12.91548  -3.534682  4.461779  16.451833  31.330927  18.828632  -166.470881  71.465767  -137.019848  -56.096795  -26.621139  102.214357  35.530839  -27.977194  4.795611  33.333926  3.306842  39.281823  95.957505  27.472358  38.042316  -20.089571  15.656954  -98.045168  83.154802  20.784414  66.026727  16.915322  1.300319  -2.155574  12.690715  0.9164  -1.654126  
0.0  101.685394  0.0  -1.291654  -38.891177  -99.016977  28.64065  -31.20649  -29.037295  2.031495  22.911258  52.974536  -2.204574  3.854799  2.156183  -4.908276  -9.405632  8.449633  -19.595991  31.042487  16.441507  27.426574  17.035201  1.269601  -4.869031  -1.428254  1.425181  -13.400278  -3.597854  4.168259  -13.400277  -3.597854  4.168259  17.157505  31.660272  19.577448  -167.290873  71.643285  -137.155359  -56.23597  -27.020451  102.440457  35.845483  -28.360206  5.001126  33.352636  3.34106  39.55162  96.379475  28.259396  38.199333  -20.536035  15.996021  -98.76889  83.680156  18.72664  66.485096  16.935235  1.459974  -2.451479  12.706831  1.027979  -1.880705  
0.0  101.685394  0.0  -1.028203  -37.074448  -98.703126  28.500937  -30.362622  -29.609033  1.870125  22.996329  52.533148  -2.461535  3.701833  2.103441  -6.592695  -8.758443  8.054827  -19.731824  31.046252  16.123052  27.286173  17.292954  1.216897  -4.992692  -1.432498  1.341607  -13.73453  -3.618613  3.947965  -13.734529  -3.618613  3.947965  17.21184  31.803312  19.930619  -167.935135  71.868728  -137.194284  -56.377798  -27.408826  102.675906  36.161476  -28.727861  5.11906  33.224327  3.317769  39.740285  96.581521  29.53724  38.179225  -20.917497  16.264981  -99.617988  84.078878  16.499454  66.707856  16.76154  1.525934  -2.800133  12.57771  1.068605  -2.143765  
